<svg xmlns="http://www.w3.org/2000/svg" xmlns:xlink="http://www.w3.org/1999/xlink" width="500" zoomAndPan="magnify" viewBox="0 0 375 374.999991" height="500" preserveAspectRatio="xMidYMid meet" version="1.2"><defs><filter x="0%" y="0%" width="100%" filterUnits="objectBoundingBox" id="aadadac95f" height="100%"><feColorMatrix values="0 0 0 0 1 0 0 0 0 1 0 0 0 0 1 0 0 0 1 0" type="matrix" in="SourceGraphic"/></filter><clipPath id="688776318b"><path d="M 1.0625 1.5 L 106 1.5 L 106 151.5 L 1.0625 151.5 Z M 1.0625 1.5 "/></clipPath><clipPath id="5c3e815eeb"><rect x="0" width="107" y="0" height="153"/></clipPath><clipPath id="787c13ac69"><path d="M 4.339844 0 L 154.339844 0 L 154.339844 145.5 L 4.339844 145.5 Z M 4.339844 0 "/></clipPath></defs><g id="b677b8d968"><g mask="url(#a18bcdbe43)" transform="matrix(1,0,0,1,134,111)"><g clip-path="url(#5c3e815eeb)"><g clip-rule="nonzero" clip-path="url(#688776318b)"><path style=" stroke:none;fill-rule:evenodd;fill:#a6a6a6;fill-opacity:1;" d="M 71.476562 11.417969 C 64.796875 12.890625 57.988281 15.320312 51.324219 16.816406 C 51.238281 16.835938 51.160156 16.867188 51.089844 16.90625 L 51.082031 16.910156 C 50.949219 16.980469 50.839844 17.085938 50.757812 17.207031 C 50.675781 17.328125 50.625 17.472656 50.609375 17.621094 L 50.609375 17.628906 C 50.601562 17.710938 50.605469 17.796875 50.621094 17.878906 L 50.636719 17.96875 C 50.910156 19.476562 51.167969 20.988281 51.414062 22.5 C 51.636719 23.855469 51.851562 25.207031 52.058594 26.566406 L 52.0625 26.585938 C 45.851562 24.714844 39.167969 23.449219 33.015625 21.527344 C 32.933594 21.503906 32.851562 21.488281 32.769531 21.488281 L 32.761719 21.488281 C 32.609375 21.484375 32.460938 21.515625 32.328125 21.582031 C 32.199219 21.648438 32.082031 21.746094 31.992188 21.867188 L 31.988281 21.875 C 31.941406 21.941406 31.902344 22.015625 31.875 22.097656 C 26.457031 37.199219 19.710938 51.453125 14.6875 66.78125 C 13.230469 71.238281 11.550781 76.691406 11.070312 81.578125 C 10.734375 84.984375 10.996094 88.125 12.222656 90.523438 C 13.382812 92.785156 15.019531 94.441406 16.710938 95.683594 C 17.035156 95.921875 17.59375 96.265625 18.300781 96.636719 C 18.535156 103.828125 16.988281 110.675781 15.417969 117.789062 C 13.609375 125.984375 11.628906 134.066406 9.25 142.113281 C 6.957031 141.640625 4.945312 142.054688 3.523438 142.816406 C 2.300781 143.46875 1.507812 144.398438 1.226562 145.289062 C 1.21875 145.308594 1.214844 145.324219 1.210938 145.34375 L 1.210938 145.347656 C 1.074219 145.832031 1.359375 146.339844 1.847656 146.476562 C 7.925781 148.164062 14.066406 149.667969 20.152344 151.371094 C 20.636719 151.507812 21.144531 151.222656 21.277344 150.738281 C 21.28125 150.730469 21.28125 150.726562 21.285156 150.71875 C 21.292969 150.691406 21.296875 150.660156 21.304688 150.632812 C 21.640625 148.753906 20.960938 147.253906 19.546875 146.035156 C 18.390625 145.039062 16.695312 144.238281 14.683594 143.582031 C 15.285156 137.683594 17.292969 131.898438 18.921875 126.195312 C 21.523438 117.074219 23.820312 107.78125 27.988281 99.296875 C 28.921875 99.347656 29.6875 99.332031 30.140625 99.28125 C 32.222656 99.050781 34.472656 98.4375 36.605469 97.058594 C 38.871094 95.59375 40.664062 93.003906 42.078125 89.886719 C 44.105469 85.414062 45.378906 79.851562 46.339844 75.265625 C 49.320312 61.089844 50.660156 46.972656 52.96875 32.8125 C 54.492188 43.59375 55.8125 54.367188 58.078125 65.171875 C 59.042969 69.761719 60.316406 75.320312 62.34375 79.792969 C 63.757812 82.910156 65.550781 85.503906 67.816406 86.964844 C 69.949219 88.34375 72.195312 88.957031 74.28125 89.191406 C 74.683594 89.234375 75.335938 89.253906 76.136719 89.21875 C 79.933594 95.332031 82.015625 102.035156 84.210938 108.980469 C 86.746094 116.984375 89.070312 124.96875 91.035156 133.132812 C 88.816406 133.867188 87.277344 135.230469 86.425781 136.601562 C 85.695312 137.777344 85.472656 138.980469 85.675781 139.894531 C 85.679688 139.910156 85.683594 139.929688 85.6875 139.945312 L 85.6875 139.949219 C 85.816406 140.4375 86.3125 140.734375 86.804688 140.609375 C 92.914062 139.03125 98.984375 137.265625 105.105469 135.699219 C 105.59375 135.574219 105.890625 135.074219 105.765625 134.582031 C 105.761719 134.578125 105.761719 134.570312 105.761719 134.566406 C 105.753906 134.535156 105.742188 134.507812 105.734375 134.480469 C 105.085938 132.6875 103.75 131.726562 101.914062 131.378906 C 100.414062 131.09375 98.546875 131.246094 96.472656 131.683594 C 94.042969 126.273438 92.894531 120.261719 91.449219 114.507812 C 89.140625 105.308594 86.488281 96.109375 85.855469 86.679688 C 86.691406 86.257812 87.34375 85.863281 87.710938 85.589844 C 89.398438 84.347656 91.039062 82.695312 92.199219 80.433594 C 93.425781 78.035156 93.683594 74.894531 93.351562 71.484375 C 92.871094 66.601562 91.191406 61.148438 89.730469 56.691406 C 84.710938 41.363281 77.964844 27.109375 72.550781 12.011719 C 72.523438 11.941406 72.492188 11.875 72.453125 11.816406 L 72.453125 11.8125 C 72.371094 11.683594 72.257812 11.582031 72.128906 11.511719 L 72.121094 11.507812 C 71.992188 11.4375 71.847656 11.398438 71.695312 11.394531 L 71.691406 11.394531 C 71.621094 11.394531 71.546875 11.402344 71.476562 11.417969 Z M 20.152344 97.511719 C 20.234375 104.519531 18.742188 111.226562 17.207031 118.183594 C 15.355469 126.566406 13.328125 134.824219 10.882812 143.050781 C 10.914062 143.203125 10.910156 143.367188 10.863281 143.523438 C 10.710938 144.007812 10.195312 144.277344 9.714844 144.125 L 9.691406 144.117188 C 9.667969 144.113281 9.640625 144.105469 9.613281 144.097656 C 9.585938 144.089844 9.558594 144.082031 9.535156 144.070312 C 7.46875 143.472656 5.636719 143.757812 4.386719 144.429688 C 4.050781 144.609375 3.753906 144.816406 3.519531 145.035156 C 8.835938 146.492188 14.195312 147.828125 19.511719 149.292969 C 19.386719 148.570312 18.972656 147.957031 18.351562 147.421875 C 17.273438 146.496094 15.648438 145.796875 13.730469 145.203125 C 13.589844 145.160156 13.46875 145.082031 13.371094 144.988281 C 13.007812 144.84375 12.765625 144.472656 12.800781 144.0625 C 13.324219 137.824219 15.441406 131.710938 17.160156 125.691406 C 19.726562 116.6875 22.015625 107.527344 26.039062 99.117188 C 25.09375 98.992188 24.082031 98.804688 23.089844 98.539062 C 22.0625 98.261719 21.058594 97.898438 20.152344 97.511719 Z M 84.078125 87.5 C 83.195312 87.863281 82.226562 88.210938 81.234375 88.472656 C 80.207031 88.75 79.152344 88.933594 78.175781 89.054688 C 81.75 95.078125 83.8125 101.632812 85.960938 108.429688 C 88.546875 116.613281 90.921875 124.777344 92.917969 133.125 C 93.023438 133.242188 93.101562 133.382812 93.136719 133.546875 C 93.246094 134.039062 92.9375 134.53125 92.441406 134.640625 L 92.421875 134.644531 C 92.394531 134.652344 92.367188 134.660156 92.339844 134.667969 C 92.3125 134.675781 92.285156 134.679688 92.257812 134.683594 C 90.171875 135.195312 88.730469 136.359375 87.984375 137.566406 C 87.78125 137.890625 87.628906 138.21875 87.535156 138.527344 C 92.867188 137.128906 98.171875 135.605469 103.515625 134.21875 C 103.042969 133.652344 102.378906 133.328125 101.570312 133.175781 C 100.175781 132.914062 98.417969 133.121094 96.460938 133.5625 C 96.316406 133.597656 96.171875 133.59375 96.039062 133.558594 C 95.652344 133.613281 95.257812 133.414062 95.082031 133.042969 C 92.417969 127.378906 91.195312 121.023438 89.675781 114.953125 C 87.394531 105.875 84.796875 96.792969 84.078125 87.5 Z M 25.542969 43.285156 C 22.324219 51.195312 19.125 59.117188 16.429688 67.351562 C 15.007812 71.691406 13.359375 77 12.894531 81.753906 C 12.597656 84.777344 12.765625 87.566406 13.851562 89.6875 C 14.871094 91.671875 16.3125 93.117188 17.796875 94.207031 C 18.121094 94.449219 18.703125 94.796875 19.445312 95.171875 C 19.554688 95.203125 19.65625 95.253906 19.742188 95.320312 C 20.816406 95.84375 22.167969 96.394531 23.566406 96.773438 C 26.160156 97.46875 28.914062 97.574219 29.9375 97.460938 C 31.765625 97.257812 33.738281 96.730469 35.613281 95.519531 C 37.617188 94.222656 39.15625 91.890625 40.410156 89.128906 C 42.382812 84.777344 43.609375 79.355469 44.550781 74.886719 C 46.546875 65.382812 47.804688 55.90625 49.113281 46.421875 C 44.972656 45.964844 40.726562 46.1875 36.632812 45.570312 C 32.855469 44.996094 29.414062 43.386719 25.542969 43.285156 Z M 81.09375 38.664062 C 75.933594 38.628906 71.082031 39.652344 65.941406 39.949219 C 62.574219 40.140625 59.191406 39.785156 55.851562 40.265625 C 56.980469 48.4375 58.152344 56.605469 59.871094 64.796875 C 60.8125 69.261719 62.039062 74.683594 64.011719 79.035156 C 65.265625 81.800781 66.804688 84.132812 68.808594 85.425781 C 70.683594 86.636719 72.65625 87.167969 74.480469 87.371094 C 74.886719 87.414062 75.5625 87.425781 76.394531 87.378906 C 76.503906 87.351562 76.617188 87.347656 76.726562 87.359375 C 77.914062 87.273438 79.363281 87.078125 80.761719 86.703125 C 83.359375 86.011719 85.796875 84.726562 86.625 84.113281 C 88.105469 83.027344 89.550781 81.582031 90.570312 79.597656 C 91.65625 77.472656 91.824219 74.683594 91.527344 71.664062 C 91.058594 66.90625 89.414062 61.601562 87.992188 57.261719 C 85.917969 50.921875 83.542969 44.769531 81.09375 38.664062 Z M 84.519531 80.089844 C 83.789062 80.695312 83.027344 81.183594 82.175781 81.589844 C 81.722656 81.808594 81.527344 82.355469 81.746094 82.8125 C 81.964844 83.265625 82.507812 83.460938 82.964844 83.242188 C 83.957031 82.773438 84.84375 82.203125 85.6875 81.5 C 86.074219 81.179688 86.128906 80.601562 85.808594 80.210938 C 85.484375 79.824219 84.90625 79.769531 84.519531 80.089844 Z M 84.84375 59.214844 C 86.652344 63.902344 88.789062 69.980469 87.210938 74.996094 C 87.058594 75.480469 87.328125 75.992188 87.808594 76.144531 C 88.289062 76.296875 88.804688 76.03125 88.957031 75.546875 C 90.65625 70.15625 88.5 63.597656 86.554688 58.554688 C 86.371094 58.082031 85.84375 57.847656 85.371094 58.027344 C 84.898438 58.210938 84.664062 58.742188 84.84375 59.214844 Z M 17.402344 69.789062 C 16.984375 70.722656 16.574219 71.664062 16.21875 72.625 C 16.042969 73.097656 16.285156 73.625 16.761719 73.800781 C 17.234375 73.972656 17.761719 73.730469 17.9375 73.257812 C 18.277344 72.332031 18.675781 71.429688 19.074219 70.53125 C 19.28125 70.070312 19.074219 69.527344 18.609375 69.324219 C 18.148438 69.117188 17.605469 69.324219 17.402344 69.789062 Z M 22.78125 53.300781 C 21.566406 56.589844 20.417969 59.886719 19.3125 63.210938 C 19.148438 63.691406 19.410156 64.210938 19.890625 64.371094 C 20.367188 64.53125 20.886719 64.269531 21.046875 63.792969 C 22.148438 60.484375 23.292969 57.207031 24.496094 53.933594 C 24.671875 53.460938 24.429688 52.933594 23.957031 52.757812 C 23.480469 52.582031 22.953125 52.824219 22.78125 53.300781 Z M 33.28125 23.59375 C 32.386719 26.058594 31.457031 28.507812 30.503906 30.945312 C 29.167969 34.359375 27.792969 37.757812 26.410156 41.152344 L 26.273438 41.488281 C 29.945312 41.746094 33.277344 43.210938 36.90625 43.757812 C 40.992188 44.375 45.230469 44.144531 49.367188 44.609375 L 49.414062 44.253906 C 49.828125 41.300781 50.25 38.347656 50.703125 35.398438 C 51.0625 33.085938 51.441406 30.777344 51.851562 28.472656 L 51.855469 28.4375 C 45.828125 26.59375 39.335938 25.347656 33.304688 23.53125 Z M 71.097656 13.378906 C 64.953125 14.796875 58.707031 16.964844 52.574219 18.410156 C 53.761719 25.097656 54.679688 31.777344 55.601562 38.453125 C 58.988281 37.976562 62.421875 38.316406 65.835938 38.121094 C 70.765625 37.835938 75.433594 36.898438 80.355469 36.835938 C 77.214844 29.054688 73.976562 21.332031 71.097656 13.378906 Z M 30.785156 15.09375 C 31.671875 15.488281 32.515625 15.953125 33.371094 16.402344 C 33.816406 16.640625 34.371094 16.46875 34.609375 16.019531 C 34.84375 15.574219 34.671875 15.019531 34.226562 14.785156 C 33.332031 14.3125 32.453125 13.832031 31.53125 13.421875 C 31.070312 13.214844 30.527344 13.421875 30.324219 13.882812 C 30.117188 14.34375 30.324219 14.886719 30.785156 15.09375 Z M 36.988281 6.746094 C 37.578125 7.609375 38.164062 8.488281 38.675781 9.398438 C 38.921875 9.839844 39.480469 9.996094 39.921875 9.75 C 40.363281 9.503906 40.519531 8.945312 40.273438 8.503906 C 39.734375 7.546875 39.121094 6.625 38.503906 5.71875 C 38.21875 5.300781 37.648438 5.191406 37.234375 5.472656 C 36.8125 5.757812 36.703125 6.328125 36.988281 6.746094 Z M 59.425781 4.246094 C 59.054688 5.308594 58.617188 6.351562 58.28125 7.425781 C 58.128906 7.910156 58.394531 8.425781 58.878906 8.578125 C 59.359375 8.726562 59.875 8.460938 60.027344 7.976562 C 60.359375 6.921875 60.789062 5.894531 61.152344 4.847656 C 61.320312 4.371094 61.066406 3.847656 60.589844 3.683594 C 60.113281 3.515625 59.589844 3.769531 59.425781 4.246094 Z M 49.367188 2.429688 C 49.367188 3.570312 49.402344 4.703125 49.453125 5.84375 C 49.476562 6.347656 49.902344 6.738281 50.410156 6.71875 C 50.914062 6.695312 51.304688 6.265625 51.28125 5.761719 C 51.230469 4.648438 51.195312 3.542969 51.195312 2.429688 C 51.195312 1.921875 50.785156 1.511719 50.28125 1.511719 C 49.777344 1.511719 49.367188 1.921875 49.367188 2.429688 Z M 49.367188 2.429688 "/></g></g><mask id="a18bcdbe43"><g filter="url(#aadadac95f)"><rect x="0" width="375" y="0" height="374.999991" style="fill:#000000;fill-opacity:0.69;stroke:none;"/></g></mask></g><g clip-rule="nonzero" clip-path="url(#787c13ac69)"><path style=" stroke:none;fill-rule:nonzero;fill:#ffffff;fill-opacity:1;" d="M 154.011719 135.550781 C 151.777344 125.875 144.230469 119.972656 135.476562 120.570312 L 129.320312 93.914062 C 144.015625 89.257812 152.945312 73.980469 149.421875 58.695312 C 149.402344 58.605469 149.375 58.515625 149.34375 58.425781 L 133.941406 15.132812 C 133.527344 13.980469 132.320312 13.320312 131.121094 13.589844 L 88.105469 23.515625 L 89.097656 19.910156 C 89.425781 18.730469 88.8125 17.488281 87.675781 17.03125 L 46.449219 0.363281 C 45.308594 -0.0976562 44.011719 0.367188 43.425781 1.449219 L 21.429688 41.8125 C 21.382812 41.890625 21.34375 41.976562 21.3125 42.0625 C 15.441406 56.597656 21.871094 73.082031 35.652344 79.992188 L 25.453125 105.226562 C 14.160156 101.90625 6.882812 111.378906 4.542969 117.164062 C 4.300781 117.761719 4.308594 118.425781 4.558594 119.015625 C 4.808594 119.605469 5.28125 120.070312 5.875 120.308594 L 33.332031 131.402344 C 33.621094 131.519531 33.929688 131.578125 34.238281 131.578125 C 34.558594 131.578125 34.878906 131.515625 35.179688 131.382812 C 35.769531 131.132812 36.238281 130.660156 36.476562 130.066406 C 40.1875 120.859375 37.390625 111.6875 29.878906 107.164062 L 40.128906 81.808594 C 43.046875 82.726562 46.046875 83.203125 49.050781 83.203125 C 53.015625 83.203125 56.980469 82.402344 60.742188 80.808594 C 68.101562 77.683594 73.796875 71.882812 76.792969 64.472656 C 76.824219 64.386719 76.855469 64.300781 76.878906 64.210938 L 86.34375 29.894531 L 91.0625 71.878906 C 91.074219 71.96875 91.089844 72.058594 91.109375 72.152344 C 92.910156 79.941406 97.636719 86.5625 104.410156 90.796875 C 109.226562 93.808594 114.667969 95.355469 120.207031 95.355469 C 121.671875 95.355469 123.140625 95.203125 124.613281 94.988281 L 130.738281 121.523438 C 119.574219 125.273438 119.050781 137.210938 120.457031 143.296875 C 120.601562 143.921875 120.984375 144.460938 121.53125 144.800781 C 121.917969 145.042969 122.359375 145.167969 122.808594 145.167969 C 122.992188 145.167969 123.171875 145.148438 123.351562 145.109375 L 152.199219 138.445312 C 153.5 138.144531 154.308594 136.847656 154.011719 135.550781 Z M 32.753906 125.957031 L 10.109375 116.8125 C 12.171875 113.269531 17.1875 106.972656 25.464844 110.316406 C 31.628906 112.816406 34.472656 119.164062 32.753906 125.957031 Z M 72.261719 62.792969 C 69.738281 68.945312 64.980469 73.757812 58.855469 76.359375 C 52.683594 78.980469 45.863281 79.042969 39.652344 76.53125 C 26.871094 71.363281 20.652344 56.789062 25.738281 43.996094 L 32.613281 31.378906 C 41.816406 36.84375 54.730469 42.46875 68.96875 42.46875 C 71.960938 42.46875 75.007812 42.214844 78.089844 41.667969 Z M 79.535156 36.425781 C 62.296875 40.417969 45.816406 33.632812 34.925781 27.140625 L 46.636719 5.648438 L 83.871094 20.703125 Z M 130.109375 18.777344 L 138.871094 43.398438 C 122.257812 50.933594 98.316406 47.457031 93.078125 46.5625 L 90.972656 27.8125 Z M 106.972656 86.703125 C 101.328125 83.175781 97.378906 77.671875 95.847656 71.195312 L 93.640625 51.546875 C 97.59375 52.164062 104.40625 53.007812 112.234375 53.007812 C 121.285156 53.007812 131.664062 51.855469 140.492188 47.949219 L 144.746094 59.914062 C 147.769531 73.351562 139.34375 86.773438 125.914062 89.871094 C 119.378906 91.382812 112.652344 90.253906 106.972656 86.703125 Z M 124.824219 139.8125 C 124.496094 135.714844 125.015625 127.683594 133.664062 125.6875 C 134.652344 125.460938 135.628906 125.351562 136.582031 125.351562 C 141.890625 125.351562 146.503906 128.761719 148.605469 134.316406 Z M 124.824219 139.8125 "/></g><path style=" stroke:none;fill-rule:nonzero;fill:#ffffff;fill-opacity:1;" d="M 44.386719 54.210938 L 44.191406 54.210938 C 42.859375 54.210938 41.875 55.292969 41.875 56.625 C 41.875 57.957031 43.054688 59.039062 44.386719 59.039062 C 45.722656 59.039062 46.804688 57.957031 46.804688 56.625 C 46.804688 55.292969 45.722656 54.210938 44.386719 54.210938 Z M 44.386719 54.210938 "/><path style=" stroke:none;fill-rule:nonzero;fill:#ffffff;fill-opacity:1;" d="M 51.0625 64.578125 L 50.863281 64.578125 C 49.53125 64.578125 48.546875 65.660156 48.546875 66.992188 C 48.546875 68.328125 49.726562 69.40625 51.0625 69.40625 C 52.394531 69.40625 53.476562 68.328125 53.476562 66.992188 C 53.476562 65.660156 52.394531 64.578125 51.0625 64.578125 Z M 51.0625 64.578125 "/><path style=" stroke:none;fill-rule:nonzero;fill:#ffffff;fill-opacity:1;" d="M 59.25 54.5 L 59.042969 54.5 C 57.707031 54.5 56.730469 55.582031 56.730469 56.917969 C 56.730469 58.25 57.914062 59.332031 59.25 59.332031 C 60.582031 59.332031 61.664062 58.25 61.664062 56.917969 C 61.664062 55.582031 60.582031 54.5 59.25 54.5 Z M 59.25 54.5 "/><path style=" stroke:none;fill-rule:nonzero;fill:#ffffff;fill-opacity:1;" d="M 121.34375 66.082031 C 120.011719 66.082031 118.929688 67.164062 118.929688 68.496094 C 118.929688 69.828125 120.011719 70.910156 121.34375 70.910156 L 121.550781 70.910156 C 122.882812 70.910156 123.859375 69.828125 123.859375 68.496094 C 123.859375 67.164062 122.675781 66.082031 121.34375 66.082031 Z M 121.34375 66.082031 "/><path style=" stroke:none;fill-rule:nonzero;fill:#ffffff;fill-opacity:1;" d="M 114.679688 76.449219 C 113.34375 76.449219 112.265625 77.53125 112.265625 78.863281 C 112.265625 80.199219 113.34375 81.28125 114.679688 81.28125 L 114.875 81.28125 C 116.210938 81.28125 117.191406 80.199219 117.191406 78.863281 C 117.191406 77.53125 116.011719 76.449219 114.679688 76.449219 Z M 114.679688 76.449219 "/><path style=" stroke:none;fill-rule:nonzero;fill:#ffffff;fill-opacity:1;" d="M 106.492188 66.363281 C 105.15625 66.363281 104.078125 67.445312 104.078125 68.777344 C 104.078125 70.113281 105.15625 71.191406 106.492188 71.191406 L 106.6875 71.191406 C 108.023438 71.191406 109.003906 70.113281 109.003906 68.777344 C 109.003906 67.445312 107.824219 66.363281 106.492188 66.363281 Z M 106.492188 66.363281 "/></g></svg>